<mxfile host="app.diagrams.net" agent="Mozilla/5.0 (Windows NT 10.0; Win64; x64) AppleWebKit/537.36 (KHTML, like Gecko) Chrome/131.0.0.0 Safari/537.36" version="25.0.3">
  <diagram id="C5RBs43oDa-KdzZeNtuy" name="Page-1">
    <mxGraphModel dx="1035" dy="411" grid="1" gridSize="10" guides="1" tooltips="1" connect="1" arrows="1" fold="1" page="1" pageScale="1" pageWidth="827" pageHeight="1169" math="0" shadow="0">
      <root>
        <mxCell id="WIyWlLk6GJQsqaUBKTNV-0" />
        <mxCell id="WIyWlLk6GJQsqaUBKTNV-1" parent="WIyWlLk6GJQsqaUBKTNV-0" />
        <mxCell id="DXwgEgkWZdpAMR1g1fIV-21" style="edgeStyle=orthogonalEdgeStyle;rounded=0;orthogonalLoop=1;jettySize=auto;html=1;exitX=0.5;exitY=1;exitDx=0;exitDy=0;exitPerimeter=0;entryX=0.5;entryY=0;entryDx=0;entryDy=0;" edge="1" parent="WIyWlLk6GJQsqaUBKTNV-1" source="DXwgEgkWZdpAMR1g1fIV-1" target="DXwgEgkWZdpAMR1g1fIV-2">
          <mxGeometry relative="1" as="geometry" />
        </mxCell>
        <mxCell id="DXwgEgkWZdpAMR1g1fIV-1" value="START" style="strokeWidth=2;html=1;shape=mxgraph.flowchart.start_1;whiteSpace=wrap;" vertex="1" parent="WIyWlLk6GJQsqaUBKTNV-1">
          <mxGeometry x="320" y="40" width="100" height="60" as="geometry" />
        </mxCell>
        <mxCell id="DXwgEgkWZdpAMR1g1fIV-2" value="READ A,B,C" style="shape=parallelogram;html=1;strokeWidth=2;perimeter=parallelogramPerimeter;whiteSpace=wrap;rounded=1;arcSize=12;size=0.23;" vertex="1" parent="WIyWlLk6GJQsqaUBKTNV-1">
          <mxGeometry x="260" y="140" width="220" height="60" as="geometry" />
        </mxCell>
        <mxCell id="DXwgEgkWZdpAMR1g1fIV-3" value="A &amp;gt; B" style="strokeWidth=2;html=1;shape=mxgraph.flowchart.decision;whiteSpace=wrap;" vertex="1" parent="WIyWlLk6GJQsqaUBKTNV-1">
          <mxGeometry x="320" y="240" width="105" height="110" as="geometry" />
        </mxCell>
        <mxCell id="DXwgEgkWZdpAMR1g1fIV-7" style="edgeStyle=orthogonalEdgeStyle;rounded=0;orthogonalLoop=1;jettySize=auto;html=1;exitX=0;exitY=0.5;exitDx=0;exitDy=0;exitPerimeter=0;entryX=0.5;entryY=0;entryDx=0;entryDy=0;" edge="1" parent="WIyWlLk6GJQsqaUBKTNV-1" source="DXwgEgkWZdpAMR1g1fIV-4" target="DXwgEgkWZdpAMR1g1fIV-6">
          <mxGeometry relative="1" as="geometry" />
        </mxCell>
        <mxCell id="DXwgEgkWZdpAMR1g1fIV-11" value="NO" style="edgeLabel;html=1;align=center;verticalAlign=middle;resizable=0;points=[];" vertex="1" connectable="0" parent="DXwgEgkWZdpAMR1g1fIV-7">
          <mxGeometry x="-0.5003" relative="1" as="geometry">
            <mxPoint as="offset" />
          </mxGeometry>
        </mxCell>
        <mxCell id="DXwgEgkWZdpAMR1g1fIV-8" style="edgeStyle=orthogonalEdgeStyle;rounded=0;orthogonalLoop=1;jettySize=auto;html=1;exitX=0.5;exitY=1;exitDx=0;exitDy=0;exitPerimeter=0;" edge="1" parent="WIyWlLk6GJQsqaUBKTNV-1" source="DXwgEgkWZdpAMR1g1fIV-4" target="DXwgEgkWZdpAMR1g1fIV-5">
          <mxGeometry relative="1" as="geometry" />
        </mxCell>
        <mxCell id="DXwgEgkWZdpAMR1g1fIV-10" value="YES" style="edgeLabel;html=1;align=center;verticalAlign=middle;resizable=0;points=[];" vertex="1" connectable="0" parent="DXwgEgkWZdpAMR1g1fIV-8">
          <mxGeometry x="-0.2149" y="2" relative="1" as="geometry">
            <mxPoint as="offset" />
          </mxGeometry>
        </mxCell>
        <mxCell id="DXwgEgkWZdpAMR1g1fIV-4" value="A &amp;gt; C" style="strokeWidth=2;html=1;shape=mxgraph.flowchart.decision;whiteSpace=wrap;" vertex="1" parent="WIyWlLk6GJQsqaUBKTNV-1">
          <mxGeometry x="550" y="330" width="110" height="110" as="geometry" />
        </mxCell>
        <mxCell id="DXwgEgkWZdpAMR1g1fIV-5" value="PRINT A" style="shape=parallelogram;html=1;strokeWidth=2;perimeter=parallelogramPerimeter;whiteSpace=wrap;rounded=1;arcSize=12;size=0.23;" vertex="1" parent="WIyWlLk6GJQsqaUBKTNV-1">
          <mxGeometry x="520" y="510" width="170" height="60" as="geometry" />
        </mxCell>
        <mxCell id="DXwgEgkWZdpAMR1g1fIV-6" value="PRINT C" style="shape=parallelogram;html=1;strokeWidth=2;perimeter=parallelogramPerimeter;whiteSpace=wrap;rounded=1;arcSize=12;size=0.23;" vertex="1" parent="WIyWlLk6GJQsqaUBKTNV-1">
          <mxGeometry x="300" y="440" width="170" height="60" as="geometry" />
        </mxCell>
        <mxCell id="DXwgEgkWZdpAMR1g1fIV-9" style="edgeStyle=orthogonalEdgeStyle;rounded=0;orthogonalLoop=1;jettySize=auto;html=1;exitX=1;exitY=0.5;exitDx=0;exitDy=0;exitPerimeter=0;entryX=0.5;entryY=0;entryDx=0;entryDy=0;entryPerimeter=0;" edge="1" parent="WIyWlLk6GJQsqaUBKTNV-1" source="DXwgEgkWZdpAMR1g1fIV-3" target="DXwgEgkWZdpAMR1g1fIV-4">
          <mxGeometry relative="1" as="geometry" />
        </mxCell>
        <mxCell id="DXwgEgkWZdpAMR1g1fIV-54" value="YES" style="edgeLabel;html=1;align=center;verticalAlign=middle;resizable=0;points=[];" vertex="1" connectable="0" parent="DXwgEgkWZdpAMR1g1fIV-9">
          <mxGeometry x="-0.3302" y="-1" relative="1" as="geometry">
            <mxPoint as="offset" />
          </mxGeometry>
        </mxCell>
        <mxCell id="DXwgEgkWZdpAMR1g1fIV-14" style="edgeStyle=orthogonalEdgeStyle;rounded=0;orthogonalLoop=1;jettySize=auto;html=1;exitX=0.5;exitY=1;exitDx=0;exitDy=0;exitPerimeter=0;entryX=0.5;entryY=0;entryDx=0;entryDy=0;" edge="1" parent="WIyWlLk6GJQsqaUBKTNV-1" source="DXwgEgkWZdpAMR1g1fIV-12" target="DXwgEgkWZdpAMR1g1fIV-13">
          <mxGeometry relative="1" as="geometry" />
        </mxCell>
        <mxCell id="DXwgEgkWZdpAMR1g1fIV-56" value="YES" style="edgeLabel;html=1;align=center;verticalAlign=middle;resizable=0;points=[];" vertex="1" connectable="0" parent="DXwgEgkWZdpAMR1g1fIV-14">
          <mxGeometry x="-0.2111" y="-2" relative="1" as="geometry">
            <mxPoint as="offset" />
          </mxGeometry>
        </mxCell>
        <mxCell id="DXwgEgkWZdpAMR1g1fIV-15" style="edgeStyle=orthogonalEdgeStyle;rounded=0;orthogonalLoop=1;jettySize=auto;html=1;exitX=1;exitY=0.5;exitDx=0;exitDy=0;exitPerimeter=0;entryX=0.5;entryY=0;entryDx=0;entryDy=0;" edge="1" parent="WIyWlLk6GJQsqaUBKTNV-1" source="DXwgEgkWZdpAMR1g1fIV-12" target="DXwgEgkWZdpAMR1g1fIV-6">
          <mxGeometry relative="1" as="geometry" />
        </mxCell>
        <mxCell id="DXwgEgkWZdpAMR1g1fIV-57" value="NO" style="edgeLabel;html=1;align=center;verticalAlign=middle;resizable=0;points=[];" vertex="1" connectable="0" parent="DXwgEgkWZdpAMR1g1fIV-15">
          <mxGeometry x="-0.392" y="1" relative="1" as="geometry">
            <mxPoint as="offset" />
          </mxGeometry>
        </mxCell>
        <mxCell id="DXwgEgkWZdpAMR1g1fIV-12" value="B &amp;gt; C" style="strokeWidth=2;html=1;shape=mxgraph.flowchart.decision;whiteSpace=wrap;" vertex="1" parent="WIyWlLk6GJQsqaUBKTNV-1">
          <mxGeometry x="120" y="330" width="110" height="110" as="geometry" />
        </mxCell>
        <mxCell id="DXwgEgkWZdpAMR1g1fIV-13" value="PRINT B" style="shape=parallelogram;html=1;strokeWidth=2;perimeter=parallelogramPerimeter;whiteSpace=wrap;rounded=1;arcSize=12;size=0.23;" vertex="1" parent="WIyWlLk6GJQsqaUBKTNV-1">
          <mxGeometry x="90" y="510" width="170" height="60" as="geometry" />
        </mxCell>
        <mxCell id="DXwgEgkWZdpAMR1g1fIV-16" style="edgeStyle=orthogonalEdgeStyle;rounded=0;orthogonalLoop=1;jettySize=auto;html=1;exitX=0;exitY=0.5;exitDx=0;exitDy=0;exitPerimeter=0;entryX=0.5;entryY=0;entryDx=0;entryDy=0;entryPerimeter=0;" edge="1" parent="WIyWlLk6GJQsqaUBKTNV-1" source="DXwgEgkWZdpAMR1g1fIV-3" target="DXwgEgkWZdpAMR1g1fIV-12">
          <mxGeometry relative="1" as="geometry" />
        </mxCell>
        <mxCell id="DXwgEgkWZdpAMR1g1fIV-55" value="NO" style="edgeLabel;html=1;align=center;verticalAlign=middle;resizable=0;points=[];" vertex="1" connectable="0" parent="DXwgEgkWZdpAMR1g1fIV-16">
          <mxGeometry x="-0.3" y="-1" relative="1" as="geometry">
            <mxPoint as="offset" />
          </mxGeometry>
        </mxCell>
        <mxCell id="DXwgEgkWZdpAMR1g1fIV-17" value="END" style="strokeWidth=2;html=1;shape=mxgraph.flowchart.terminator;whiteSpace=wrap;" vertex="1" parent="WIyWlLk6GJQsqaUBKTNV-1">
          <mxGeometry x="335" y="630" width="100" height="60" as="geometry" />
        </mxCell>
        <mxCell id="DXwgEgkWZdpAMR1g1fIV-18" style="edgeStyle=orthogonalEdgeStyle;rounded=0;orthogonalLoop=1;jettySize=auto;html=1;exitX=0.5;exitY=1;exitDx=0;exitDy=0;entryX=1;entryY=0.5;entryDx=0;entryDy=0;entryPerimeter=0;" edge="1" parent="WIyWlLk6GJQsqaUBKTNV-1" source="DXwgEgkWZdpAMR1g1fIV-5" target="DXwgEgkWZdpAMR1g1fIV-17">
          <mxGeometry relative="1" as="geometry" />
        </mxCell>
        <mxCell id="DXwgEgkWZdpAMR1g1fIV-19" style="edgeStyle=orthogonalEdgeStyle;rounded=0;orthogonalLoop=1;jettySize=auto;html=1;exitX=0.5;exitY=1;exitDx=0;exitDy=0;entryX=0;entryY=0.5;entryDx=0;entryDy=0;entryPerimeter=0;" edge="1" parent="WIyWlLk6GJQsqaUBKTNV-1" source="DXwgEgkWZdpAMR1g1fIV-13" target="DXwgEgkWZdpAMR1g1fIV-17">
          <mxGeometry relative="1" as="geometry" />
        </mxCell>
        <mxCell id="DXwgEgkWZdpAMR1g1fIV-20" style="edgeStyle=orthogonalEdgeStyle;rounded=0;orthogonalLoop=1;jettySize=auto;html=1;exitX=0.5;exitY=1;exitDx=0;exitDy=0;entryX=0.5;entryY=0;entryDx=0;entryDy=0;entryPerimeter=0;" edge="1" parent="WIyWlLk6GJQsqaUBKTNV-1" source="DXwgEgkWZdpAMR1g1fIV-2" target="DXwgEgkWZdpAMR1g1fIV-3">
          <mxGeometry relative="1" as="geometry" />
        </mxCell>
        <mxCell id="DXwgEgkWZdpAMR1g1fIV-22" style="edgeStyle=orthogonalEdgeStyle;rounded=0;orthogonalLoop=1;jettySize=auto;html=1;exitX=0.5;exitY=1;exitDx=0;exitDy=0;entryX=0.5;entryY=0;entryDx=0;entryDy=0;entryPerimeter=0;" edge="1" parent="WIyWlLk6GJQsqaUBKTNV-1" source="DXwgEgkWZdpAMR1g1fIV-6" target="DXwgEgkWZdpAMR1g1fIV-17">
          <mxGeometry relative="1" as="geometry" />
        </mxCell>
        <mxCell id="DXwgEgkWZdpAMR1g1fIV-23" value="START" style="strokeWidth=2;html=1;shape=mxgraph.flowchart.start_1;whiteSpace=wrap;" vertex="1" parent="WIyWlLk6GJQsqaUBKTNV-1">
          <mxGeometry x="310" y="740" width="100" height="60" as="geometry" />
        </mxCell>
        <mxCell id="DXwgEgkWZdpAMR1g1fIV-24" value="READ A , B ,C&amp;nbsp;" style="shape=parallelogram;html=1;strokeWidth=2;perimeter=parallelogramPerimeter;whiteSpace=wrap;rounded=1;arcSize=12;size=0.23;" vertex="1" parent="WIyWlLk6GJQsqaUBKTNV-1">
          <mxGeometry x="251.5" y="850" width="225" height="60" as="geometry" />
        </mxCell>
        <mxCell id="DXwgEgkWZdpAMR1g1fIV-32" style="edgeStyle=orthogonalEdgeStyle;rounded=0;orthogonalLoop=1;jettySize=auto;html=1;exitX=1;exitY=0.5;exitDx=0;exitDy=0;exitPerimeter=0;" edge="1" parent="WIyWlLk6GJQsqaUBKTNV-1" source="DXwgEgkWZdpAMR1g1fIV-25" target="DXwgEgkWZdpAMR1g1fIV-27">
          <mxGeometry relative="1" as="geometry" />
        </mxCell>
        <mxCell id="DXwgEgkWZdpAMR1g1fIV-52" value="YES" style="edgeLabel;html=1;align=center;verticalAlign=middle;resizable=0;points=[];" vertex="1" connectable="0" parent="DXwgEgkWZdpAMR1g1fIV-32">
          <mxGeometry x="-0.3375" y="-1" relative="1" as="geometry">
            <mxPoint as="offset" />
          </mxGeometry>
        </mxCell>
        <mxCell id="DXwgEgkWZdpAMR1g1fIV-25" value="C &amp;gt; A" style="strokeWidth=2;html=1;shape=mxgraph.flowchart.decision;whiteSpace=wrap;" vertex="1" parent="WIyWlLk6GJQsqaUBKTNV-1">
          <mxGeometry x="314" y="960" width="100" height="100" as="geometry" />
        </mxCell>
        <mxCell id="DXwgEgkWZdpAMR1g1fIV-29" style="edgeStyle=orthogonalEdgeStyle;rounded=0;orthogonalLoop=1;jettySize=auto;html=1;exitX=0.5;exitY=1;exitDx=0;exitDy=0;exitPerimeter=0;" edge="1" parent="WIyWlLk6GJQsqaUBKTNV-1" source="DXwgEgkWZdpAMR1g1fIV-27" target="DXwgEgkWZdpAMR1g1fIV-28">
          <mxGeometry relative="1" as="geometry" />
        </mxCell>
        <mxCell id="DXwgEgkWZdpAMR1g1fIV-49" value="YES" style="edgeLabel;html=1;align=center;verticalAlign=middle;resizable=0;points=[];" vertex="1" connectable="0" parent="DXwgEgkWZdpAMR1g1fIV-29">
          <mxGeometry x="-0.1255" y="-1" relative="1" as="geometry">
            <mxPoint as="offset" />
          </mxGeometry>
        </mxCell>
        <mxCell id="DXwgEgkWZdpAMR1g1fIV-33" style="edgeStyle=orthogonalEdgeStyle;rounded=0;orthogonalLoop=1;jettySize=auto;html=1;exitX=0;exitY=0.5;exitDx=0;exitDy=0;exitPerimeter=0;entryX=0.5;entryY=0;entryDx=0;entryDy=0;" edge="1" parent="WIyWlLk6GJQsqaUBKTNV-1" source="DXwgEgkWZdpAMR1g1fIV-27" target="DXwgEgkWZdpAMR1g1fIV-38">
          <mxGeometry relative="1" as="geometry">
            <mxPoint x="360" y="1240" as="targetPoint" />
          </mxGeometry>
        </mxCell>
        <mxCell id="DXwgEgkWZdpAMR1g1fIV-48" value="NO" style="edgeLabel;html=1;align=center;verticalAlign=middle;resizable=0;points=[];" vertex="1" connectable="0" parent="DXwgEgkWZdpAMR1g1fIV-33">
          <mxGeometry x="-0.4197" y="-2" relative="1" as="geometry">
            <mxPoint as="offset" />
          </mxGeometry>
        </mxCell>
        <mxCell id="DXwgEgkWZdpAMR1g1fIV-27" value="C &amp;gt; B" style="strokeWidth=2;html=1;shape=mxgraph.flowchart.decision;whiteSpace=wrap;" vertex="1" parent="WIyWlLk6GJQsqaUBKTNV-1">
          <mxGeometry x="570" y="1080" width="100" height="100" as="geometry" />
        </mxCell>
        <mxCell id="DXwgEgkWZdpAMR1g1fIV-28" value="PRINT C" style="shape=parallelogram;html=1;strokeWidth=2;perimeter=parallelogramPerimeter;whiteSpace=wrap;rounded=1;arcSize=12;size=0.23;" vertex="1" parent="WIyWlLk6GJQsqaUBKTNV-1">
          <mxGeometry x="535" y="1260" width="170" height="60" as="geometry" />
        </mxCell>
        <mxCell id="DXwgEgkWZdpAMR1g1fIV-30" value="" style="endArrow=none;dashed=1;html=1;rounded=0;" edge="1" parent="WIyWlLk6GJQsqaUBKTNV-1">
          <mxGeometry width="50" height="50" relative="1" as="geometry">
            <mxPoint x="10" y="720" as="sourcePoint" />
            <mxPoint x="800" y="720" as="targetPoint" />
          </mxGeometry>
        </mxCell>
        <mxCell id="DXwgEgkWZdpAMR1g1fIV-31" value="SOLUTION 2" style="edgeLabel;html=1;align=center;verticalAlign=middle;resizable=0;points=[];" vertex="1" connectable="0" parent="DXwgEgkWZdpAMR1g1fIV-30">
          <mxGeometry x="-0.026" relative="1" as="geometry">
            <mxPoint x="-1" as="offset" />
          </mxGeometry>
        </mxCell>
        <mxCell id="DXwgEgkWZdpAMR1g1fIV-34" value="PRINT A" style="shape=parallelogram;html=1;strokeWidth=2;perimeter=parallelogramPerimeter;whiteSpace=wrap;rounded=1;arcSize=12;size=0.2867647058823529;" vertex="1" parent="WIyWlLk6GJQsqaUBKTNV-1">
          <mxGeometry x="45" y="1260" width="170" height="60" as="geometry" />
        </mxCell>
        <mxCell id="DXwgEgkWZdpAMR1g1fIV-39" style="edgeStyle=orthogonalEdgeStyle;rounded=0;orthogonalLoop=1;jettySize=auto;html=1;exitX=0.5;exitY=1;exitDx=0;exitDy=0;exitPerimeter=0;" edge="1" parent="WIyWlLk6GJQsqaUBKTNV-1" source="DXwgEgkWZdpAMR1g1fIV-36" target="DXwgEgkWZdpAMR1g1fIV-34">
          <mxGeometry relative="1" as="geometry" />
        </mxCell>
        <mxCell id="DXwgEgkWZdpAMR1g1fIV-40" style="edgeStyle=orthogonalEdgeStyle;rounded=0;orthogonalLoop=1;jettySize=auto;html=1;exitX=1;exitY=0.5;exitDx=0;exitDy=0;exitPerimeter=0;entryX=0.5;entryY=0;entryDx=0;entryDy=0;" edge="1" parent="WIyWlLk6GJQsqaUBKTNV-1" source="DXwgEgkWZdpAMR1g1fIV-36" target="DXwgEgkWZdpAMR1g1fIV-38">
          <mxGeometry relative="1" as="geometry" />
        </mxCell>
        <mxCell id="DXwgEgkWZdpAMR1g1fIV-50" value="NO" style="edgeLabel;html=1;align=center;verticalAlign=middle;resizable=0;points=[];" vertex="1" connectable="0" parent="DXwgEgkWZdpAMR1g1fIV-40">
          <mxGeometry x="-0.411" y="-2" relative="1" as="geometry">
            <mxPoint as="offset" />
          </mxGeometry>
        </mxCell>
        <mxCell id="DXwgEgkWZdpAMR1g1fIV-41" style="edgeStyle=orthogonalEdgeStyle;rounded=0;orthogonalLoop=1;jettySize=auto;html=1;" edge="1" parent="WIyWlLk6GJQsqaUBKTNV-1" source="DXwgEgkWZdpAMR1g1fIV-36" target="DXwgEgkWZdpAMR1g1fIV-34">
          <mxGeometry relative="1" as="geometry" />
        </mxCell>
        <mxCell id="DXwgEgkWZdpAMR1g1fIV-51" value="YES" style="edgeLabel;html=1;align=center;verticalAlign=middle;resizable=0;points=[];" vertex="1" connectable="0" parent="DXwgEgkWZdpAMR1g1fIV-41">
          <mxGeometry x="-0.2308" relative="1" as="geometry">
            <mxPoint as="offset" />
          </mxGeometry>
        </mxCell>
        <mxCell id="DXwgEgkWZdpAMR1g1fIV-36" value="A &amp;gt; B" style="strokeWidth=2;html=1;shape=mxgraph.flowchart.decision;whiteSpace=wrap;" vertex="1" parent="WIyWlLk6GJQsqaUBKTNV-1">
          <mxGeometry x="80" y="1080" width="100" height="100" as="geometry" />
        </mxCell>
        <mxCell id="DXwgEgkWZdpAMR1g1fIV-37" style="edgeStyle=orthogonalEdgeStyle;rounded=0;orthogonalLoop=1;jettySize=auto;html=1;exitX=0;exitY=0.5;exitDx=0;exitDy=0;exitPerimeter=0;entryX=0.5;entryY=0;entryDx=0;entryDy=0;entryPerimeter=0;" edge="1" parent="WIyWlLk6GJQsqaUBKTNV-1" source="DXwgEgkWZdpAMR1g1fIV-25" target="DXwgEgkWZdpAMR1g1fIV-36">
          <mxGeometry relative="1" as="geometry" />
        </mxCell>
        <mxCell id="DXwgEgkWZdpAMR1g1fIV-53" value="NO" style="edgeLabel;html=1;align=center;verticalAlign=middle;resizable=0;points=[];" vertex="1" connectable="0" parent="DXwgEgkWZdpAMR1g1fIV-37">
          <mxGeometry x="-0.352" y="3" relative="1" as="geometry">
            <mxPoint as="offset" />
          </mxGeometry>
        </mxCell>
        <mxCell id="DXwgEgkWZdpAMR1g1fIV-38" value="PRINT B" style="shape=parallelogram;html=1;strokeWidth=2;perimeter=parallelogramPerimeter;whiteSpace=wrap;rounded=1;arcSize=12;size=0.2867647058823529;" vertex="1" parent="WIyWlLk6GJQsqaUBKTNV-1">
          <mxGeometry x="280" y="1260" width="170" height="60" as="geometry" />
        </mxCell>
        <mxCell id="DXwgEgkWZdpAMR1g1fIV-42" value="END&amp;nbsp;" style="strokeWidth=2;html=1;shape=mxgraph.flowchart.terminator;whiteSpace=wrap;" vertex="1" parent="WIyWlLk6GJQsqaUBKTNV-1">
          <mxGeometry x="314" y="1430" width="100" height="60" as="geometry" />
        </mxCell>
        <mxCell id="DXwgEgkWZdpAMR1g1fIV-43" style="edgeStyle=orthogonalEdgeStyle;rounded=0;orthogonalLoop=1;jettySize=auto;html=1;exitX=0.5;exitY=1;exitDx=0;exitDy=0;entryX=1;entryY=0.5;entryDx=0;entryDy=0;entryPerimeter=0;" edge="1" parent="WIyWlLk6GJQsqaUBKTNV-1" source="DXwgEgkWZdpAMR1g1fIV-28" target="DXwgEgkWZdpAMR1g1fIV-42">
          <mxGeometry relative="1" as="geometry" />
        </mxCell>
        <mxCell id="DXwgEgkWZdpAMR1g1fIV-44" style="edgeStyle=orthogonalEdgeStyle;rounded=0;orthogonalLoop=1;jettySize=auto;html=1;exitX=0.5;exitY=1;exitDx=0;exitDy=0;entryX=0.5;entryY=0;entryDx=0;entryDy=0;entryPerimeter=0;" edge="1" parent="WIyWlLk6GJQsqaUBKTNV-1" source="DXwgEgkWZdpAMR1g1fIV-38" target="DXwgEgkWZdpAMR1g1fIV-42">
          <mxGeometry relative="1" as="geometry" />
        </mxCell>
        <mxCell id="DXwgEgkWZdpAMR1g1fIV-45" style="edgeStyle=orthogonalEdgeStyle;rounded=0;orthogonalLoop=1;jettySize=auto;html=1;exitX=0.5;exitY=1;exitDx=0;exitDy=0;entryX=0;entryY=0.5;entryDx=0;entryDy=0;entryPerimeter=0;" edge="1" parent="WIyWlLk6GJQsqaUBKTNV-1" source="DXwgEgkWZdpAMR1g1fIV-34" target="DXwgEgkWZdpAMR1g1fIV-42">
          <mxGeometry relative="1" as="geometry" />
        </mxCell>
        <mxCell id="DXwgEgkWZdpAMR1g1fIV-46" style="edgeStyle=orthogonalEdgeStyle;rounded=0;orthogonalLoop=1;jettySize=auto;html=1;exitX=0.5;exitY=1;exitDx=0;exitDy=0;entryX=0.5;entryY=0;entryDx=0;entryDy=0;entryPerimeter=0;" edge="1" parent="WIyWlLk6GJQsqaUBKTNV-1" source="DXwgEgkWZdpAMR1g1fIV-24" target="DXwgEgkWZdpAMR1g1fIV-25">
          <mxGeometry relative="1" as="geometry" />
        </mxCell>
        <mxCell id="DXwgEgkWZdpAMR1g1fIV-47" style="edgeStyle=orthogonalEdgeStyle;rounded=0;orthogonalLoop=1;jettySize=auto;html=1;exitX=0.5;exitY=1;exitDx=0;exitDy=0;exitPerimeter=0;" edge="1" parent="WIyWlLk6GJQsqaUBKTNV-1" source="DXwgEgkWZdpAMR1g1fIV-23">
          <mxGeometry relative="1" as="geometry">
            <mxPoint x="360" y="850" as="targetPoint" />
          </mxGeometry>
        </mxCell>
      </root>
    </mxGraphModel>
  </diagram>
</mxfile>
